<?xml version="1.0" encoding="UTF-8" standalone="no"?>
<!DOCTYPE svg PUBLIC "-//W3C//DTD SVG 1.1//EN"
 "http://www.w3.org/Graphics/SVG/1.1/DTD/svg11.dtd">
<!-- Generated by graphviz version 2.38.0 (20140413.2041)
 -->
<!-- Title: %3 Pages: 1 -->
<svg width="466pt" height="355pt"
 viewBox="0.00 0.00 466.00 355.00" xmlns="http://www.w3.org/2000/svg" xmlns:xlink="http://www.w3.org/1999/xlink">
<g id="graph0" class="graph" transform="scale(1 1) rotate(0) translate(4 351)">
<title>%3</title>
<polygon fill="#333333" stroke="none" points="-4,4 -4,-351 462,-351 462,4 -4,4"/>
<text text-anchor="middle" x="229" y="-9.2" font-family="Times,serif" font-size="16.00" fill="white">Network Map</text>
<!-- R5 -->
<g id="node1" class="node"><title>R5</title>
<polygon fill="#006699" stroke="#006699" points="289,-347 213,-347 213,-274 289,-274 289,-347"/>
<text text-anchor="middle" x="251" y="-306.8" font-family="Helvetica,sans-Serif" font-size="14.00" fill="white">R5</text>
</g>
<!-- R2 -->
<g id="node2" class="node"><title>R2</title>
<polygon fill="#006699" stroke="#006699" points="105,-223 29,-223 29,-150 105,-150 105,-223"/>
<text text-anchor="middle" x="67" y="-182.8" font-family="Helvetica,sans-Serif" font-size="14.00" fill="white">R2</text>
</g>
<!-- SW2 -->
<g id="node4" class="node"><title>SW2</title>
<polygon fill="#006699" stroke="#006699" points="111.5,-347 22.5,-347 22.5,-274 111.5,-274 111.5,-347"/>
<text text-anchor="middle" x="67" y="-306.8" font-family="Helvetica,sans-Serif" font-size="14.00" fill="white">SW2</text>
</g>
<!-- R2&#45;&#45;SW2 -->
<g id="edge4" class="edge"><title>R2&#45;&#45;SW2</title>
<path fill="none" stroke="green" stroke-dasharray="5,2" d="M67,-223.115C67,-239.01 67,-257.704 67,-273.629"/>
<text text-anchor="middle" x="117" y="-244.8" font-family="Courier,monospace" font-size="14.00" fill="white"> &#160;&#160;&#160;&#160;&#160;&#160;&#160;&#160;&#160;&#160;&#160;</text>
<text text-anchor="middle" x="33.5" y="-262.429" font-family="Courier,monospace" font-size="14.00" fill="white">Eth 0/11</text>
<text text-anchor="middle" x="38" y="-226.915" font-family="Courier,monospace" font-size="14.00" fill="white">Eth 0/1</text>
</g>
<!-- SW1 -->
<g id="node3" class="node"><title>SW1</title>
<polygon fill="#006699" stroke="#006699" points="234.5,-99 145.5,-99 145.5,-26 234.5,-26 234.5,-99"/>
<text text-anchor="middle" x="190" y="-58.8" font-family="Helvetica,sans-Serif" font-size="14.00" fill="white">SW1</text>
</g>
<!-- SW1&#45;&#45;R2 -->
<g id="edge2" class="edge"><title>SW1&#45;&#45;R2</title>
<path fill="none" stroke="green" stroke-dasharray="5,2" d="M145.366,-77.0716C124.599,-85.4899 101.188,-98.3383 86,-117 78.4436,-126.285 73.8857,-138.368 71.1389,-149.796"/>
<text text-anchor="middle" x="136" y="-120.8" font-family="Courier,monospace" font-size="14.00" fill="white"> &#160;&#160;&#160;&#160;&#160;&#160;&#160;&#160;&#160;&#160;&#160;</text>
<text text-anchor="middle" x="42.1389" y="-138.596" font-family="Courier,monospace" font-size="14.00" fill="white">Eth 0/0</text>
<text text-anchor="middle" x="116.366" y="-65.8716" font-family="Courier,monospace" font-size="14.00" fill="white">Eth 0/2</text>
</g>
<!-- R1 -->
<g id="node5" class="node"><title>R1</title>
<polygon fill="#006699" stroke="#006699" points="228,-223 152,-223 152,-150 228,-150 228,-223"/>
<text text-anchor="middle" x="190" y="-182.8" font-family="Helvetica,sans-Serif" font-size="14.00" fill="white">R1</text>
</g>
<!-- SW1&#45;&#45;R1 -->
<g id="edge1" class="edge"><title>SW1&#45;&#45;R1</title>
<path fill="none" stroke="green" stroke-dasharray="5,2" d="M190,-99.1154C190,-115.01 190,-133.704 190,-149.629"/>
<text text-anchor="middle" x="240" y="-120.8" font-family="Courier,monospace" font-size="14.00" fill="white"> &#160;&#160;&#160;&#160;&#160;&#160;&#160;&#160;&#160;&#160;&#160;</text>
<text text-anchor="middle" x="161" y="-138.429" font-family="Courier,monospace" font-size="14.00" fill="white">Eth 0/0</text>
<text text-anchor="middle" x="161" y="-102.915" font-family="Courier,monospace" font-size="14.00" fill="white">Eth 0/1</text>
</g>
<!-- R3 -->
<g id="node6" class="node"><title>R3</title>
<polygon fill="#006699" stroke="#006699" points="351,-223 275,-223 275,-150 351,-150 351,-223"/>
<text text-anchor="middle" x="313" y="-182.8" font-family="Helvetica,sans-Serif" font-size="14.00" fill="white">R3</text>
</g>
<!-- SW1&#45;&#45;R3 -->
<g id="edge3" class="edge"><title>SW1&#45;&#45;R3</title>
<path fill="none" stroke="green" stroke-dasharray="5,2" d="M234.576,-78.2791C254.288,-86.8239 276.284,-99.43 291,-117 298.779,-126.288 303.822,-138.373 307.085,-149.8"/>
<text text-anchor="middle" x="350" y="-120.8" font-family="Courier,monospace" font-size="14.00" fill="white"> &#160;&#160;&#160;&#160;&#160;&#160;&#160;&#160;&#160;&#160;&#160;</text>
<text text-anchor="middle" x="278.085" y="-138.6" font-family="Courier,monospace" font-size="14.00" fill="white">Eth 0/0</text>
<text text-anchor="middle" x="263.576" y="-67.0791" font-family="Courier,monospace" font-size="14.00" fill="white">Eth 0/3</text>
</g>
<!-- R3&#45;&#45;R5 -->
<g id="edge6" class="edge"><title>R3&#45;&#45;R5</title>
<path fill="none" stroke="green" stroke-dasharray="5,2" d="M274.901,-209.732C264.187,-218.063 253.865,-228.576 248,-241 243.274,-251.011 242.378,-262.789 243.152,-273.728"/>
<text text-anchor="middle" x="298" y="-244.8" font-family="Courier,monospace" font-size="14.00" fill="white"> &#160;&#160;&#160;&#160;&#160;&#160;&#160;&#160;&#160;&#160;&#160;</text>
<text text-anchor="middle" x="214.152" y="-262.528" font-family="Courier,monospace" font-size="14.00" fill="white">Eth 0/0</text>
<text text-anchor="middle" x="245.901" y="-213.532" font-family="Courier,monospace" font-size="14.00" fill="white">Eth 0/2</text>
</g>
<!-- R4 -->
<g id="node7" class="node"><title>R4</title>
<polygon fill="#006699" stroke="#006699" points="412,-347 336,-347 336,-274 412,-274 412,-347"/>
<text text-anchor="middle" x="374" y="-306.8" font-family="Helvetica,sans-Serif" font-size="14.00" fill="white">R4</text>
</g>
<!-- R3&#45;&#45;R4 -->
<g id="edge5" class="edge"><title>R3&#45;&#45;R4</title>
<path fill="none" stroke="green" stroke-dasharray="5,2" d="M341.28,-223.045C345.199,-228.854 348.927,-234.955 352,-241 357.208,-251.244 361.514,-262.971 364.893,-273.794"/>
<text text-anchor="middle" x="408" y="-244.8" font-family="Courier,monospace" font-size="14.00" fill="white"> &#160;&#160;&#160;&#160;&#160;&#160;&#160;&#160;&#160;&#160;&#160;</text>
<text text-anchor="middle" x="335.893" y="-262.594" font-family="Courier,monospace" font-size="14.00" fill="white">Eth 0/0</text>
<text text-anchor="middle" x="312.28" y="-226.845" font-family="Courier,monospace" font-size="14.00" fill="white">Eth 0/1</text>
</g>
</g>
</svg>
